<svg xmlns="http://www.w3.org/2000/svg" width="240" height="80" viewBox="0 0 240 80">
  <!-- Definitions for gradients -->
  <defs>
    <linearGradient id="blueGradient" x1="0%" y1="0%" x2="100%" y2="100%">
      <stop offset="0%" stop-color="#3B82F6" />
      <stop offset="100%" stop-color="#1E3A8A" />
    </linearGradient>
    <linearGradient id="textGradient" x1="0%" y1="0%" x2="100%" y2="0%">
      <stop offset="0%" stop-color="#1E3A8A" />
      <stop offset="50%" stop-color="#2563EB" />
      <stop offset="100%" stop-color="#1E3A8A" />
    </linearGradient>
  </defs>
  
  <!-- Background shapes -->
  <rect x="5" y="5" width="70" height="70" rx="10" fill="#1E3A8A" />
  <rect x="10" y="10" width="60" height="60" rx="8" fill="url(#blueGradient)" />
  
  <!-- W letter in ethnocentric style -->
  <path d="M25,25 L30,25 L35,45 L40,25 L45,25 L50,45 L55,25 L60,25 L51,55 L46,55 L40,35 L34,55 L29,55 L25,25 Z" fill="white" />
  
  <!-- UMPUS text in ethnocentric style with gradient and stroke (moved left to connect with the W) -->
  <g transform="translate(70, 42)">
    <!-- U (White with black stroke) -->
    <path d="M31,0 L36,0 L36,18 C36,20 35,22 33,22 C31,22 30,20 30,18 L30,0 L25,0 L25,18 C25,23 28,25 33,25 C38,25 41,23 41,18 L41,0 L36,0 Z" fill="white" stroke="black" stroke-width="1.5" />
    
    <!-- M with black stroke -->
    <path d="M46,0 L51,0 L58,15 L65,0 L70,0 L70,25 L65,25 L65,8 L58,23 L57,23 L50,8 L50,25 L45,25 L45,0 Z" transform="translate(28, 0)" fill="url(#textGradient)" stroke="black" stroke-width="1.5" />
    
    <!-- P with black stroke -->
    <path d="M75,0 L88,0 C91,0 93,2 93,5 L93,9 C93,12 91,14 88,14 L80,14 L80,25 L75,25 L75,0 Z M80,9 L88,9 C88,9 88,5 86,5 L80,5 L80,9 Z" transform="translate(28, 0)" fill="url(#textGradient)" stroke="black" stroke-width="1.5" />
    
    <!-- U with black stroke (second U) -->
    <path d="M98,0 L103,0 L103,18 C103,20 102,22 100,22 C98,22 97,20 97,18 L97,0 L92,0 L92,18 C92,23 95,25 100,25 C105,25 108,23 108,18 L108,0 L103,0 Z" transform="translate(28, 0)" fill="url(#textGradient)" stroke="black" stroke-width="1.5" />
    
    <!-- S with black stroke -->
    <path d="M112,0 L125,0 L125,5 L117,5 L117,9 L125,9 L125,25 L112,25 L112,20 L120,20 L120,14 L112,14 L112,0 Z" transform="translate(28, 0)" fill="url(#textGradient)" stroke="black" stroke-width="1.5" />
  </g>
</svg>